<?xml version="1.0" encoding="UTF-8" standalone="no"?>
<!-- Created with Inkscape (http://www.inkscape.org/) -->

<svg
   width="210mm"
   height="160mm"
   viewBox="0 0 210 160"
   version="1.1"
   id="svg1"
   xml:space="preserve"
   xmlns:inkscape="http://www.inkscape.org/namespaces/inkscape"
   xmlns:sodipodi="http://sodipodi.sourceforge.net/DTD/sodipodi-0.dtd"
   xmlns="http://www.w3.org/2000/svg"
   xmlns:svg="http://www.w3.org/2000/svg"><sodipodi:namedview
     id="namedview1"
     pagecolor="#ffffff"
     bordercolor="#999999"
     borderopacity="1"
     inkscape:showpageshadow="0"
     inkscape:pageopacity="0"
     inkscape:pagecheckerboard="0"
     inkscape:deskcolor="#d1d1d1"
     inkscape:document-units="mm" /><defs
     id="defs1" /><g
     inkscape:label="Layer 1"
     inkscape:groupmode="layer"
     id="layer1"><path
       id="path2"
       style="fill:#ffffff;fill-opacity:0.998104;stroke:#767676;stroke-width:0"
       d="m 104.14913,15.366489 c -2.64539,0.0078 -2.1227,3.142227 -2.16576,4.008542 -0.053,1.066233 -0.0284,90.361409 -0.0284,90.361409 l -4.954222,0.1173 c 0,0 -0.06705,-75.595162 -0.224276,-78.816372 -0.157229,-3.221211 -3.643157,-1.299389 -4.608504,-0.676961 -0.965348,0.622426 -19.362417,11.235973 -19.562631,29.135172 -0.191975,17.162693 0.08217,53.906271 0.08217,53.906271 0,0 -8.607198,3.95101 -9.221143,7.90701 -0.275375,1.7744 -0.06408,5.35626 -0.06408,5.35626 -17.427207,3.53472 -36.350982,9.62241 -53.284603,17.96841 0,0 38.380388,-13.43696 91.256449,-13.5201 37.30764,-0.0587 69.43577,4.18125 98.50819,13.04571 -20.16363,-11.18993 -51.49918,-17.64388 -51.49918,-17.64388 0,0 -0.0553,-2.7964 -0.0858,-4.80436 -0.0529,-3.4876 -10.42986,-9.12244 -10.42986,-9.12244 0,0 0.13236,-56.849671 -0.0331,-62.474737 -0.54336,-18.474978 -23.29629,-30.984585 -31.30196,-34.186544 -0.9938,-0.397479 -1.77285,-0.56249 -2.38332,-0.56069 z m 3.8933,11.4608 c 12.0283,3.250549 27.24898,16.666284 27.24898,25.673368 -1.98679,-9.770973 -16.94538,-19.996302 -27.24898,-22.221899 z m 0,9.423198 c 10.79633,3.653059 26.30846,13.912918 27.24898,23.531896 -3.55269,-10.560985 -19.08204,-18.202412 -27.24898,-19.601904 z m -16.842899,1.035078 v 3.383773 c -6.865815,2.342307 -13.927453,6.879533 -16.648596,14.83062 1.622571,-9.460845 10.587169,-15.74822 16.648596,-18.214393 z m 16.842899,9.109005 c 12.12838,3.224734 26.16166,13.42796 27.24898,20.870044 -2.44359,-7.335986 -16.02394,-15.611408 -27.24898,-17.120919 z m -16.842899,0.471806 v 3.873149 c -7.028219,1.50951 -14.773517,5.795214 -16.666166,14.091129 0.787639,-8.573036 9.072343,-14.739541 16.666166,-17.964278 z m 0,9.782865 V 60.16944 C 85.605889,61.085568 77.123167,65.592182 74.331827,72.21935 76.350239,64.013718 85.390339,58.480061 91.199531,56.649241 Z m 16.842899,0 c 9.27807,1.830819 23.34061,9.178369 26.66711,16.290479 -4.12893,-5.896055 -17.73329,-11.854153 -26.66711,-12.77028 z m -16.842899,9.962183 v 3.49126 C 85.684644,71.11422 77.07035,74.852578 74.530265,79.562571 76.404607,74.395196 85.901289,67.572748 91.199531,66.611424 Z m 16.842899,0 c 8.46202,0.961323 23.45958,8.221475 26.45317,13.388847 -4.05688,-4.709988 -17.64514,-9.392481 -26.45317,-10.404016 z m -16.842899,9.810254 v 3.242179 c -6.050514,0.730984 -13.001408,3.646016 -16.696655,8.548316 2.909417,-5.620741 10.324855,-10.436708 16.696655,-11.790495 z m 16.842899,0 c 10.17664,1.353786 22.02036,6.169759 26.66711,11.790495 -5.90183,-4.902295 -17.00361,-7.817332 -26.66711,-8.548316 z m -16.814993,10.0552 v 3.437 c -4.483015,-0.13116 -12.635915,2.09011 -15.82074,4.964554 2.409885,-3.572438 10.73943,-7.813537 15.82074,-8.401554 z m 16.770553,0 c 8.11553,0.588017 21.4193,4.82912 25.26823,8.401554 -5.08661,-2.874441 -18.10826,-5.095714 -25.26823,-4.964554 z m -16.770553,9.87485 v 3.101619 c -4.483015,-0.13116 -12.651155,2.256863 -15.556674,3.713473 1.969071,-2.14782 10.475364,-6.227077 15.556674,-6.815092 z m 16.770553,0 c 8.11553,0.588014 22.12335,4.221302 25.26823,6.369122 -4.64052,-1.45662 -18.10826,-3.398663 -25.26823,-3.267503 z M 91.199531,106.66273 v 2.78225 c -4.483004,-0.13116 -13.047886,1.11772 -15.376322,2.41794 1.711983,-2.13937 10.29502,-4.61217 15.376322,-5.20019 z m 16.842899,0 c 8.11553,0.58802 22.53395,2.10066 25.26823,4.24005 -3.71884,-1.30024 -18.10826,-1.58896 -25.26823,-1.4578 z" /></g></svg>
